<svg width="37" height="565" viewBox="0 0 37 565" fill="none" xmlns="http://www.w3.org/2000/svg">
<path d="M8.91978 548.125V565H1.33289V524.267H17.7276C22.6692 524.267 26.39 525.004 28.8899 526.478C31.4479 527.914 32.7269 530.202 32.7269 533.345V538.931C32.7269 543.315 30.1108 546.049 24.8784 547.136L37 565H28.7155L17.4659 548.125H8.91978ZM25.14 532.821C25.14 531.347 24.6168 530.28 23.5703 529.62C22.582 528.961 20.9832 528.631 18.774 528.631H8.91978V543.761H18.774C20.9832 543.761 22.582 543.431 23.5703 542.771C24.6168 542.073 25.14 540.987 25.14 539.513V532.821Z" fill="white"/>
<path d="M31.7677 490.285C31.7677 493.505 30.6049 495.852 28.2794 497.326C25.9539 498.761 22.175 499.479 16.9427 499.479H5.78036V495.115H17.7275C19.9368 495.115 21.5646 494.785 22.6111 494.126C23.6575 493.427 24.1808 492.341 24.1808 490.867V484.873C24.1808 483.593 23.5994 482.585 22.4366 481.848C21.2739 481.072 19.7333 480.684 17.8147 480.684H8.48374V476.32H16.9427C18.7449 476.32 20.2565 475.932 21.4774 475.156C22.6983 474.38 23.3087 473.352 23.3087 472.072V467.3C23.3087 465.826 22.7855 464.759 21.739 464.1C20.7507 463.44 19.1519 463.11 16.9427 463.11H5.78036V458.746H15.8962C20.8379 458.746 24.5587 459.483 27.0585 460.957C29.6166 462.393 30.8956 464.682 30.8956 467.824V471.49C30.8956 474.477 29.2968 476.727 26.0993 478.24C29.8782 479.636 31.7677 482.022 31.7677 485.397V490.285Z" fill="white"/>
<path d="M34.5582 408.937C34.5582 412.079 33.3083 414.406 30.8084 415.919C28.3085 417.393 24.6168 418.13 19.7333 418.13H10.6639V433.958H3.07698V393.225H19.5589C24.5005 393.225 28.2213 393.962 30.7212 395.436C33.2792 396.872 34.5582 399.161 34.5582 402.303V408.937ZM26.9713 401.779C26.9713 400.305 26.4481 399.238 25.4016 398.579C24.4133 397.919 22.8145 397.589 20.6053 397.589H10.6639V413.766H20.6053C22.8145 413.766 24.4133 413.437 25.4016 412.777C26.4481 412.079 26.9713 410.993 26.9713 409.518V401.779Z" fill="white"/>
<path d="M34.2966 358.545C34.2966 361.765 32.9595 364.228 30.2852 365.935C27.669 367.603 24.1226 368.437 19.6461 368.437H17.902C13.4254 368.437 9.84997 367.603 7.17566 365.935C4.55949 364.228 3.2514 361.765 3.2514 358.545V337.597C3.2514 334.338 4.55949 331.875 7.17566 330.207C9.79183 328.538 13.3673 327.704 17.902 327.704H19.6461C24.1808 327.704 27.7562 328.538 30.3724 330.207C32.9885 331.875 34.2966 334.338 34.2966 337.597V358.545ZM26.8841 336.491C26.8841 335.288 26.1865 334.26 24.7912 333.407C23.454 332.515 21.739 332.069 19.6461 332.069H17.902C15.809 332.069 14.0649 332.515 12.6696 333.407C11.3325 334.26 10.6639 335.288 10.6639 336.491V352.26L26.8841 336.491ZM10.6639 359.651C10.6639 360.853 11.3325 361.901 12.6696 362.793C14.0649 363.646 15.809 364.073 17.902 364.073H19.6461C21.739 364.073 23.454 363.646 24.7912 362.793C26.1865 361.901 26.8841 360.853 26.8841 359.651V343.939L10.6639 359.651Z" fill="white"/>
<path d="M12.844 262.183V298.494H32.2909V302.916H5.25713V262.183H12.844Z" fill="white"/>
<path d="M31.7677 228.202C31.7677 231.421 30.6049 233.768 28.2794 235.243C25.9539 236.678 22.175 237.396 16.9427 237.396H5.78036V233.031H17.7275C19.9368 233.031 21.5646 232.702 22.6111 232.042C23.6575 231.344 24.1808 230.258 24.1808 228.783V222.79C24.1808 221.51 23.5994 220.501 22.4366 219.764C21.2739 218.988 19.7333 218.6 17.8147 218.6H8.48374V214.236H16.9427C18.7449 214.236 20.2565 213.848 21.4774 213.072C22.6983 212.296 23.3087 211.268 23.3087 209.988V205.217C23.3087 203.742 22.7855 202.676 21.739 202.016C20.7507 201.357 19.1519 201.027 16.9427 201.027H5.78036V196.663H15.8962C20.8379 196.663 24.5587 197.4 27.0585 198.874C29.6166 200.309 30.8956 202.598 30.8956 205.74V209.406C30.8956 212.393 29.2968 214.643 26.0993 216.156C29.8782 217.553 31.7677 219.939 31.7677 223.314V228.202Z" fill="white"/>
<path d="M0.112 131.142H7.7861L18.2508 166.754L29.5003 131.142H37L23.3087 171.875H12.9312L0.112 131.142Z" fill="white"/>
<path d="M31.7677 97.1598C31.7677 100.38 30.6049 102.727 28.2794 104.201C25.9539 105.636 22.175 106.354 16.9427 106.354H5.78036V101.99H17.7275C19.9368 101.99 21.5646 101.66 22.6111 101C23.6575 100.302 24.1808 99.2158 24.1808 97.7417V91.7481C24.1808 90.468 23.5994 89.4593 22.4366 88.7223C21.2739 87.9464 19.7333 87.5585 17.8147 87.5585H8.48374V83.1942H16.9427C18.7449 83.1942 20.2565 82.8063 21.4774 82.0304C22.6983 81.2546 23.3087 80.2265 23.3087 78.9464V74.1748C23.3087 72.7006 22.7855 71.6338 21.739 70.9743C20.7507 70.3149 19.1519 69.9851 16.9427 69.9851H5.78036V65.6209H15.8962C20.8379 65.6209 24.5587 66.3579 27.0585 67.8321C29.6166 69.2674 30.8956 71.5562 30.8956 74.6985V78.3645C30.8956 81.3515 29.2968 83.6016 26.0993 85.1145C29.8782 86.511 31.7677 88.8968 31.7677 92.2718V97.1598Z" fill="white"/>
<path d="M35.1687 31.6389C35.1687 34.9751 34.0059 37.3415 31.6805 38.7381C29.4131 40.1346 25.6342 40.8329 20.3437 40.8329H2.37935V0.0999908H19.2972C24.5296 0.0999908 28.4829 0.817666 31.1572 2.25302C33.8315 3.64957 35.1687 5.95777 35.1687 9.17761V31.6389ZM27.5818 8.6539C27.5818 7.37373 27.0004 6.3651 25.8377 5.62803C24.6749 4.85217 23.1343 4.46423 21.2158 4.46423H9.96624V36.4687H21.1286C23.3378 36.4687 24.9656 36.1389 26.0121 35.4794C27.0586 34.7812 27.5818 33.6949 27.5818 32.2208V8.6539Z" fill="white"/>
</svg>
