<svg xmlns="http://www.w3.org/2000/svg" style="display: none;">
  <defs>
    <symbol id="katakana-project" viewBox="0 0 751 136">
      <path d="M114.7 34c9-.2 16.1-7.2 16.1-16.3 0-9-7.2-16.3-16.2-16.3A16 16 0 0 0 98.4 17H25C10.3 17 6.3 16.7.8 15.8v26c5-.6 8.5-.8 23.8-.9h60.2c-8.2 33.6-34.2 59-72.5 71 9.4 9 13.4 14.5 18.2 24.2 45.8-20.5 70.8-49.5 82.6-95.8l.9-3.7.4-1.5.2-.5.1-.6Zm-.1-24.5c4.4 0 8.2 3.8 8.2 8.2 0 4.3-3.8 8-8.2 8a8.3 8.3 0 0 1-8.2-8c0-4.4 3.7-8.2 8.2-8.2Zm104.5 111v9.7h26a194 194 0 0 1-1-23.8v-73c0-6.8.2-12 .5-17-6.8.6-9 .6-17.9.6h-77.6c-9.5 0-12.4-.1-17.4-.6.4 6 .6 10.4.6 16.6v74a176 176 0 0 1-1.2 23.5h26.2v-10h61.8Zm0-23h-61.8V40h61.8v57.5Zm45.8-68.7c12.8 4.2 28 11.7 41.3 20.6l12.8-22c-10-6-25.5-13.3-41.3-19l-12.8 20.4Zm73-17a102 102 0 0 1 12.7 23.3l14.2-5.1c-3.3-8.2-7.6-16.3-12.7-23L338 11.9Zm-84.3 52.4a174.4 174.4 0 0 1 41.2 22.5l12.3-22.6a205 205 0 0 0-40.2-20.5l-13.3 20.6ZM358.6 5a106 106 0 0 1 12.6 22.7l13.8-5c-4-9.4-8-16.2-12.8-22.3L358.6 5ZM265 134a72 72 0 0 1 10.2-2.5c53.3-9 86-33.9 104.3-79a89.8 89.8 0 0 1-21.2-18c-10.2 31-29.2 52.2-56.1 62.9a135.7 135.7 0 0 1-44.4 9.2l7.2 27.3Zm185.7-68.8h13.9c8.9 0 14.8.3 18.8.8V44c-5.6.6-9.6 1-18.8 1h-50.3c-8.6 0-13-.4-18.6-1v22c6.2-.6 9.2-.8 18.7-.8h13.3v43H406c-10.5 0-14.1-.2-19.5-1v22c7-.6 9.1-.6 19.6-.6h67c10.2 0 14.2.1 19.4.6v-22c-5.7.8-10.2 1-19.4 1h-22.5v-43Zm97.5-62a55 55 0 0 1-6.2 17.3 113.3 113.3 0 0 1-38.3 43.9 70.8 70.8 0 0 1 20.5 17.3 135 135 0 0 0 32.6-36.2l38.3-.4a101.2 101.2 0 0 1-24 40.9 126.1 126.1 0 0 1-48.1 29.4c8 7 12.5 12.6 17.3 21.8a148.7 148.7 0 0 0 53-37.1A152.2 152.2 0 0 0 623 43c2-6.5 2.4-7.4 4.2-10.3l-12-11.8a24 24 0 0 1-10.7 1.6l-36.1.4 2.9-6.1 1.3-3c.4-1 .7-1.8 1-2.2.7-1.9 1-2.3 1.7-3.6l-27.2-5Zm138 130.3a198 198 0 0 1-1-22V74a267 267 0 0 1 51.8 28l14-24.5a305.4 305.4 0 0 0-65.5-30V27.8c0-9.6.1-16.8.7-21h-27.8c.9 7.8 1 9.2 1 20.9v83.8c0 11.3-.3 15.5-.9 22h27.8Z" />
    </symbol>
    <symbol id="projects-leet" viewBox="0 0 751 136">
      <path d="M445 49.5769C445 54.628 443.558 58.3099 440.674 60.6224C437.789 62.8741 433.102 64 426.613 64H412.444V57.1536H427.586C430.326 57.1536 432.345 56.6363 433.643 55.6017C434.941 54.5063 435.59 52.8023 435.59 50.4897V38.8964C435.59 36.8881 434.869 35.3059 433.427 34.1496C431.985 32.9324 430.074 32.3239 427.694 32.3239H413.525V0.100006H443.378V6.94644H422.719V25.4774H427.153C432.706 25.4774 437.068 26.6337 440.241 28.9463C443.414 31.2589 445 34.8494 445 39.718V49.5769Z" fill="red"/>
      <path d="M365.606 64V7.03772H348.408V0.100006H392.213V7.03772H375.016V64H365.606Z" fill="yellow"/>
      <path d="M314.009 64C307.736 64 302.904 62.722 299.515 60.166C296.198 57.5491 294.54 53.6543 294.54 48.4814V15.6186C294.54 10.4457 296.198 6.58129 299.515 4.02529C302.904 1.40843 307.736 0.100006 314.009 0.100006H329.368V7.03772H312.927C310.259 7.03772 308.096 7.70715 306.438 9.046C304.779 10.3849 303.95 11.9976 303.95 13.8841V50.2159C303.95 52.1024 304.779 53.7151 306.438 55.054C308.096 56.3929 310.259 57.0623 312.927 57.0623H329.368V64H314.009Z" fill="yellow"/>
      <path d="M269.659 49.5769C269.659 54.628 268.217 58.3099 265.332 60.6224C262.448 62.8741 257.761 64 251.272 64H237.427V57.1536H252.245C254.985 57.1536 257.004 56.6363 258.302 55.6017C259.6 54.5063 260.249 52.8023 260.249 50.4897V41.0873C260.249 39.079 259.528 37.4967 258.086 36.3404C256.643 35.1233 254.733 34.5147 252.353 34.5147H240.78V27.6683H251.272C253.507 27.6683 255.382 27.0597 256.896 25.8426C258.41 24.6254 259.167 23.0127 259.167 21.0044V13.519C259.167 11.2064 258.518 9.53286 257.22 8.49829C255.995 7.46372 254.012 6.94644 251.272 6.94644H237.427V0.100006H249.974C256.103 0.100006 260.718 1.25629 263.818 3.56886C266.991 5.82058 268.577 9.41115 268.577 14.3406V20.0916C268.577 24.7776 266.594 28.3073 262.628 30.6807C267.315 32.8716 269.659 36.6143 269.659 41.9089V49.5769Z" fill="red"/>
      <path d="M210.274 48.4814C210.274 53.6543 208.58 57.5491 205.191 60.166C201.874 62.722 197.079 64 190.805 64H179.449V57.0623H191.887C194.555 57.0623 196.718 56.3929 198.377 55.054C200.035 53.7151 200.864 52.1024 200.864 50.2159V6.94644H183.451V0.100006H210.274V48.4814Z" fill="yellow"/>
      <path d="M155.974 48.4814C155.974 53.5326 154.315 57.397 150.998 60.0747C147.753 62.6916 143.355 64 137.803 64H135.639C130.087 64 125.652 62.6916 122.336 60.0747C119.091 57.397 117.468 53.5326 117.468 48.4814V15.6186C117.468 10.5066 119.091 6.64215 122.336 4.02529C125.58 1.40843 130.015 0.100006 135.639 0.100006H137.803C143.427 0.100006 147.861 1.40843 151.106 4.02529C154.351 6.64215 155.974 10.5066 155.974 15.6186V48.4814ZM146.78 13.8841C146.78 11.9976 145.915 10.3849 144.184 9.046C142.526 7.64629 140.398 6.94644 137.803 6.94644H135.639C133.043 6.94644 130.88 7.64629 129.15 9.046C127.491 10.3849 126.662 11.9976 126.662 13.8841V38.6226L146.78 13.8841ZM126.662 50.2159C126.662 52.1024 127.491 53.7456 129.15 55.1453C130.88 56.4841 133.043 57.1536 135.639 57.1536H137.803C140.398 57.1536 142.526 56.4841 144.184 55.1453C145.915 53.7456 146.78 52.1024 146.78 50.2159V25.5687L126.662 50.2159Z" fill="red"/>
      <path d="M66.0878 37.5271V64H56.6778V0.100006H77.012C83.1411 0.100006 87.756 1.25629 90.8566 3.56886C94.0293 5.82058 95.6156 9.41115 95.6156 14.3406V23.104C95.6156 29.9809 92.3708 34.2713 85.8812 35.9753L100.916 64H90.6402L76.6875 37.5271H66.0878ZM86.2056 13.519C86.2056 11.2064 85.5567 9.53286 84.2588 8.49829C83.0329 7.46372 81.05 6.94644 78.3099 6.94644H66.0878V30.6807H78.3099C81.05 30.6807 83.0329 30.1634 84.2588 29.1289C85.5567 28.0334 86.2056 26.3294 86.2056 24.0169V13.519Z" fill="yellow"/>
      <path d="M39.476 24.7471C39.476 29.6766 37.9257 33.328 34.8251 35.7014C31.7245 38.014 27.1457 39.1703 21.0887 39.1703H9.83997V64H0.429993V0.100006H20.8724C27.0015 0.100006 31.6163 1.25629 34.7169 3.56886C37.8896 5.82058 39.476 9.41115 39.476 14.3406V24.7471ZM30.066 13.519C30.066 11.2064 29.4171 9.53286 28.1191 8.49829C26.8933 7.46372 24.9104 6.94644 22.1703 6.94644H9.83997V32.3239H22.1703C24.9104 32.3239 26.8933 31.8066 28.1191 30.772C29.4171 29.6766 30.066 27.9726 30.066 25.66V13.519Z" fill="yellow"/>
</symbol>
    <symbol id="katakana-profile" viewBox="0 0 136 766">
      <path d="M33 651.3c-.2-9-7.2-16.1-16.3-16.1-9 0-16.3 7.2-16.3 16.2A16 16 0 0 0 16 667.6V741c0 14.7-.3 18.7-1.2 24.2h26c-.6-5-.8-8.5-.9-23.8v-60.2c33.6 8.2 59 34.2 71 72.5 9-9.4 14.5-13.4 24.2-18.2-20.5-45.8-49.5-70.8-95.8-82.6l-3.7-.9-1.5-.4-.5-.2-.6-.1Zm-24.5.1c0-4.4 3.8-8.2 8.2-8.2a8.2 8.2 0 0 1 0 16.4 8.3 8.3 0 0 1-8.2-8.2Zm111-104.5h9.7v-26c-5.8.7-12.7 1-23.8 1h-73c-6.8 0-12-.2-17-.5.6 6.8.6 9 .6 17.9v77.6c0 9.5-.1 12.4-.6 17.4 6-.4 10.4-.6 16.6-.6h74c10.7 0 15.6.3 23.5 1.2v-26.2h-10v-61.8Zm-23 0v61.8H39v-61.8h57.5Zm-83-143.3c1.3 3.2 1.8 5.8 1.8 10.5v68.4a139 139 0 0 1-1.2 24.7h26c-.6-7.7-.8-10.3-.8-24.2v-59.8a89 89 0 0 1 42.7 24 116.1 116.1 0 0 1 28.2 48.4 75.8 75.8 0 0 1 24.2-18.1c-11.7-25.3-23.2-41.5-39.2-54.9-16.4-13.8-34.4-22.4-61.2-28.9a19.1 19.1 0 0 1-8-3l-12.6 13Zm13.9-106c7.3 4.4 17 14.5 25.8 26.7 12.2 17 21.1 36.2 27.3 58.4a70 70 0 0 1 20.5-12.3 172.2 172.2 0 0 0-17-37.6h30c10.6 0 14.3.3 20 1v-25.6c-5.2.7-10.6.9-20 .9H69.8a160.4 160.4 0 0 0-23.6-26.7c-3.4-3.1-3.4-3.1-5-5l-13.8 20.2ZM83 262.3c-.8-8.8-.9-13.5-.9-29.7v-68.5c0-16.4.1-22.8.9-29.7H55.2c1 9.7 1.3 15.1 1.3 29.5v68.9c0 15-.3 22.7-1.3 29.5H83ZM8.8 114c3.7-.4 7-.6 13.2-.6 37.3 0 55.2 2.3 69.3 9 9.5 4.6 15.6 9 23 17.2a78.1 78.1 0 0 1 20-20.6 95.8 95.8 0 0 0-28.7-20c-15.7-6.9-31.7-9.8-61.8-10.6-28.5-1-28.5-1-33.4-1.6L8.8 114Zm-.7-41a90 90 0 0 1 11.2-.6h5.2l85.2.7c6 0 8.4.3 12.1 1.6l13-12.4c-1.2-1.8-1.6-3-3-7A86.2 86.2 0 0 0 115.4 25 88.2 88.2 0 0 0 78.8.2a98.4 98.4 0 0 1-19 19.2 73 73 0 0 1 24.6 11.2 55 55 0 0 1 15.8 17.3l-75.4-.7A103 103 0 0 1 8 46v27.1Z" />
    </symbol>
    <symbol id="profile-leet" viewBox="10 0 10 600">
      <path d="M8.91978 548.125V565H1.33289V524.267H17.7276C22.6692 524.267 26.39 525.004 28.8899 526.478C31.4479 527.914 32.7269 530.202 32.7269 533.345V538.931C32.7269 543.315 30.1108 546.049 24.8784 547.136L37 565H28.7155L17.4659 548.125H8.91978ZM25.14 532.821C25.14 531.347 24.6168 530.28 23.5703 529.62C22.582 528.961 20.9832 528.631 18.774 528.631H8.91978V543.761H18.774C20.9832 543.761 22.582 543.431 23.5703 542.771C24.6168 542.073 25.14 540.987 25.14 539.513V532.821Z" fill="yellow"/>
      <path d="M31.7677 490.285C31.7677 493.505 30.6049 495.852 28.2794 497.326C25.9539 498.761 22.175 499.479 16.9427 499.479H5.78036V495.115H17.7275C19.9368 495.115 21.5646 494.785 22.6111 494.126C23.6575 493.427 24.1808 492.341 24.1808 490.867V484.873C24.1808 483.593 23.5994 482.585 22.4366 481.848C21.2739 481.072 19.7333 480.684 17.8147 480.684H8.48374V476.32H16.9427C18.7449 476.32 20.2565 475.932 21.4774 475.156C22.6983 474.38 23.3087 473.352 23.3087 472.072V467.3C23.3087 465.826 22.7855 464.759 21.739 464.1C20.7507 463.44 19.1519 463.11 16.9427 463.11H5.78036V458.746H15.8962C20.8379 458.746 24.5587 459.483 27.0585 460.957C29.6166 462.393 30.8956 464.682 30.8956 467.824V471.49C30.8956 474.477 29.2968 476.727 26.0993 478.24C29.8782 479.636 31.7677 482.022 31.7677 485.397V490.285Z" fill="red"/>
      <path d="M34.5582 408.937C34.5582 412.079 33.3083 414.406 30.8084 415.919C28.3085 417.393 24.6168 418.13 19.7333 418.13H10.6639V433.958H3.07698V393.225H19.5589C24.5005 393.225 28.2213 393.962 30.7212 395.436C33.2792 396.872 34.5582 399.161 34.5582 402.303V408.937ZM26.9713 401.779C26.9713 400.305 26.4481 399.238 25.4016 398.579C24.4133 397.919 22.8145 397.589 20.6053 397.589H10.6639V413.766H20.6053C22.8145 413.766 24.4133 413.437 25.4016 412.777C26.4481 412.079 26.9713 410.993 26.9713 409.518V401.779Z" fill="yellow"/>
      <path d="M34.2966 358.545C34.2966 361.765 32.9595 364.228 30.2852 365.935C27.669 367.603 24.1226 368.437 19.6461 368.437H17.902C13.4254 368.437 9.84997 367.603 7.17566 365.935C4.55949 364.228 3.2514 361.765 3.2514 358.545V337.597C3.2514 334.338 4.55949 331.875 7.17566 330.207C9.79183 328.538 13.3673 327.704 17.902 327.704H19.6461C24.1808 327.704 27.7562 328.538 30.3724 330.207C32.9885 331.875 34.2966 334.338 34.2966 337.597V358.545ZM26.8841 336.491C26.8841 335.288 26.1865 334.26 24.7912 333.407C23.454 332.515 21.739 332.069 19.6461 332.069H17.902C15.809 332.069 14.0649 332.515 12.6696 333.407C11.3325 334.26 10.6639 335.288 10.6639 336.491V352.26L26.8841 336.491ZM10.6639 359.651C10.6639 360.853 11.3325 361.901 12.6696 362.793C14.0649 363.646 15.809 364.073 17.902 364.073H19.6461C21.739 364.073 23.454 363.646 24.7912 362.793C26.1865 361.901 26.8841 360.853 26.8841 359.651V343.939L10.6639 359.651Z" fill="red"/>
      <path d="M12.844 262.183V298.494H32.2909V302.916H5.25713V262.183H12.844Z" fill="yellow"/>
      <path d="M31.7677 228.202C31.7677 231.421 30.6049 233.768 28.2794 235.243C25.9539 236.678 22.175 237.396 16.9427 237.396H5.78036V233.031H17.7275C19.9368 233.031 21.5646 232.702 22.6111 232.042C23.6575 231.344 24.1808 230.258 24.1808 228.783V222.79C24.1808 221.51 23.5994 220.501 22.4366 219.764C21.2739 218.988 19.7333 218.6 17.8147 218.6H8.48374V214.236H16.9427C18.7449 214.236 20.2565 213.848 21.4774 213.072C22.6983 212.296 23.3087 211.268 23.3087 209.988V205.217C23.3087 203.742 22.7855 202.676 21.739 202.016C20.7507 201.357 19.1519 201.027 16.9427 201.027H5.78036V196.663H15.8962C20.8379 196.663 24.5587 197.4 27.0585 198.874C29.6166 200.309 30.8956 202.598 30.8956 205.74V209.406C30.8956 212.393 29.2968 214.643 26.0993 216.156C29.8782 217.553 31.7677 219.939 31.7677 223.314V228.202Z" fill="red"/>
      <path d="M0.112 131.142H7.7861L18.2508 166.754L29.5003 131.142H37L23.3087 171.875H12.9312L0.112 131.142Z" fill="yellow"/>
      <path d="M31.7677 97.1598C31.7677 100.38 30.6049 102.727 28.2794 104.201C25.9539 105.636 22.175 106.354 16.9427 106.354H5.78036V101.99H17.7275C19.9368 101.99 21.5646 101.66 22.6111 101C23.6575 100.302 24.1808 99.2158 24.1808 97.7417V91.7481C24.1808 90.468 23.5994 89.4593 22.4366 88.7223C21.2739 87.9464 19.7333 87.5585 17.8147 87.5585H8.48374V83.1942H16.9427C18.7449 83.1942 20.2565 82.8063 21.4774 82.0304C22.6983 81.2546 23.3087 80.2265 23.3087 78.9464V74.1748C23.3087 72.7006 22.7855 71.6338 21.739 70.9743C20.7507 70.3149 19.1519 69.9851 16.9427 69.9851H5.78036V65.6209H15.8962C20.8379 65.6209 24.5587 66.3579 27.0585 67.8321C29.6166 69.2674 30.8956 71.5562 30.8956 74.6985V78.3645C30.8956 81.3515 29.2968 83.6016 26.0993 85.1145C29.8782 86.511 31.7677 88.8968 31.7677 92.2718V97.1598Z" fill="red"/>
      <path d="M35.1687 31.6389C35.1687 34.9751 34.0059 37.3415 31.6805 38.7381C29.4131 40.1346 25.6342 40.8329 20.3437 40.8329H2.37935V0.0999908H19.2972C24.5296 0.0999908 28.4829 0.817666 31.1572 2.25302C33.8315 3.64957 35.1687 5.95777 35.1687 9.17761V31.6389ZM27.5818 8.6539C27.5818 7.37373 27.0004 6.3651 25.8377 5.62803C24.6749 4.85217 23.1343 4.46423 21.2158 4.46423H9.96624V36.4687H21.1286C23.3378 36.4687 24.9656 36.1389 26.0121 35.4794C27.0586 34.7812 27.5818 33.6949 27.5818 32.2208V8.6539Z" fill="yellow"/>
    </symbol>
  </defs>
</svg>
