<svg width="445" height="64" viewBox="0 0 445 64" fill="none" xmlns="http://www.w3.org/2000/svg">
<path d="M445 49.5769C445 54.628 443.558 58.3099 440.674 60.6224C437.789 62.8741 433.102 64 426.613 64H412.444V57.1536H427.586C430.326 57.1536 432.345 56.6363 433.643 55.6017C434.941 54.5063 435.59 52.8023 435.59 50.4897V38.8964C435.59 36.8881 434.869 35.3059 433.427 34.1496C431.985 32.9324 430.074 32.3239 427.694 32.3239H413.525V0.100006H443.378V6.94644H422.719V25.4774H427.153C432.706 25.4774 437.068 26.6337 440.241 28.9463C443.414 31.2589 445 34.8494 445 39.718V49.5769Z" fill="white"/>
<path d="M365.606 64V7.03772H348.408V0.100006H392.213V7.03772H375.016V64H365.606Z" fill="white"/>
<path d="M314.009 64C307.736 64 302.904 62.722 299.515 60.166C296.198 57.5491 294.54 53.6543 294.54 48.4814V15.6186C294.54 10.4457 296.198 6.58129 299.515 4.02529C302.904 1.40843 307.736 0.100006 314.009 0.100006H329.368V7.03772H312.927C310.259 7.03772 308.096 7.70715 306.438 9.046C304.779 10.3849 303.95 11.9976 303.95 13.8841V50.2159C303.95 52.1024 304.779 53.7151 306.438 55.054C308.096 56.3929 310.259 57.0623 312.927 57.0623H329.368V64H314.009Z" fill="white"/>
<path d="M269.659 49.5769C269.659 54.628 268.217 58.3099 265.332 60.6224C262.448 62.8741 257.761 64 251.272 64H237.427V57.1536H252.245C254.985 57.1536 257.004 56.6363 258.302 55.6017C259.6 54.5063 260.249 52.8023 260.249 50.4897V41.0873C260.249 39.079 259.528 37.4967 258.086 36.3404C256.643 35.1233 254.733 34.5147 252.353 34.5147H240.78V27.6683H251.272C253.507 27.6683 255.382 27.0597 256.896 25.8426C258.41 24.6254 259.167 23.0127 259.167 21.0044V13.519C259.167 11.2064 258.518 9.53286 257.22 8.49829C255.995 7.46372 254.012 6.94644 251.272 6.94644H237.427V0.100006H249.974C256.103 0.100006 260.718 1.25629 263.818 3.56886C266.991 5.82058 268.577 9.41115 268.577 14.3406V20.0916C268.577 24.7776 266.594 28.3073 262.628 30.6807C267.315 32.8716 269.659 36.6143 269.659 41.9089V49.5769Z" fill="white"/>
<path d="M210.274 48.4814C210.274 53.6543 208.58 57.5491 205.191 60.166C201.874 62.722 197.079 64 190.805 64H179.449V57.0623H191.887C194.555 57.0623 196.718 56.3929 198.377 55.054C200.035 53.7151 200.864 52.1024 200.864 50.2159V6.94644H183.451V0.100006H210.274V48.4814Z" fill="white"/>
<path d="M155.974 48.4814C155.974 53.5326 154.315 57.397 150.998 60.0747C147.753 62.6916 143.355 64 137.803 64H135.639C130.087 64 125.652 62.6916 122.336 60.0747C119.091 57.397 117.468 53.5326 117.468 48.4814V15.6186C117.468 10.5066 119.091 6.64215 122.336 4.02529C125.58 1.40843 130.015 0.100006 135.639 0.100006H137.803C143.427 0.100006 147.861 1.40843 151.106 4.02529C154.351 6.64215 155.974 10.5066 155.974 15.6186V48.4814ZM146.78 13.8841C146.78 11.9976 145.915 10.3849 144.184 9.046C142.526 7.64629 140.398 6.94644 137.803 6.94644H135.639C133.043 6.94644 130.88 7.64629 129.15 9.046C127.491 10.3849 126.662 11.9976 126.662 13.8841V38.6226L146.78 13.8841ZM126.662 50.2159C126.662 52.1024 127.491 53.7456 129.15 55.1453C130.88 56.4841 133.043 57.1536 135.639 57.1536H137.803C140.398 57.1536 142.526 56.4841 144.184 55.1453C145.915 53.7456 146.78 52.1024 146.78 50.2159V25.5687L126.662 50.2159Z" fill="white"/>
<path d="M66.0878 37.5271V64H56.6778V0.100006H77.012C83.1411 0.100006 87.756 1.25629 90.8566 3.56886C94.0293 5.82058 95.6156 9.41115 95.6156 14.3406V23.104C95.6156 29.9809 92.3708 34.2713 85.8812 35.9753L100.916 64H90.6402L76.6875 37.5271H66.0878ZM86.2056 13.519C86.2056 11.2064 85.5567 9.53286 84.2588 8.49829C83.0329 7.46372 81.05 6.94644 78.3099 6.94644H66.0878V30.6807H78.3099C81.05 30.6807 83.0329 30.1634 84.2588 29.1289C85.5567 28.0334 86.2056 26.3294 86.2056 24.0169V13.519Z" fill="white"/>
<path d="M39.476 24.7471C39.476 29.6766 37.9257 33.328 34.8251 35.7014C31.7245 38.014 27.1457 39.1703 21.0887 39.1703H9.83997V64H0.429993V0.100006H20.8724C27.0015 0.100006 31.6163 1.25629 34.7169 3.56886C37.8896 5.82058 39.476 9.41115 39.476 14.3406V24.7471ZM30.066 13.519C30.066 11.2064 29.4171 9.53286 28.1191 8.49829C26.8933 7.46372 24.9104 6.94644 22.1703 6.94644H9.83997V32.3239H22.1703C24.9104 32.3239 26.8933 31.8066 28.1191 30.772C29.4171 29.6766 30.066 27.9726 30.066 25.66V13.519Z" fill="white"/>
</svg>
