<svg width="574" height="185" viewBox="0 0 574 185" fill="none" xmlns="http://www.w3.org/2000/svg">
<path d="M550.925 143.219H533.427C533.61 140.166 533.763 136.899 533.885 133.417C534.068 129.882 534.221 126.266 534.343 122.57C534.526 118.874 534.648 115.205 534.709 111.562C534.831 107.866 534.893 104.358 534.893 101.037H493.665C493.054 103.983 492.077 106.822 490.734 109.554C489.451 112.232 487.893 114.616 486.061 116.705C484.229 118.74 482.213 120.374 480.014 121.606C477.877 122.838 475.678 123.454 473.418 123.454C470.425 123.454 468.074 122.597 466.364 120.883C464.714 119.169 463.89 116.758 463.89 113.651C463.89 111.884 464.317 110.009 465.173 108.027C466.028 105.992 467.219 104.01 468.746 102.081C470.273 100.153 472.105 98.3586 474.243 96.6981C476.441 94.984 478.854 93.5645 481.48 92.4397C481.297 89.6543 480.961 86.976 480.472 84.4049C479.984 81.8338 479.159 79.2627 477.999 76.6916C476.899 74.0669 475.403 71.4154 473.51 68.7372C471.616 66.0589 469.204 63.2467 466.272 60.3007H456.103V51.7838H573.28V60.3007H549.46V96.3767C549.46 99.7513 549.49 103.474 549.551 107.545C549.612 111.562 549.704 115.66 549.826 119.838C550.009 123.963 550.192 128.034 550.376 132.051C550.559 136.068 550.742 139.791 550.925 143.219ZM494.032 90.0292H534.893V60.3007H481.664C485.572 64.8001 488.474 69.5942 490.367 74.6829C492.322 79.718 493.543 84.8334 494.032 90.0292Z" fill="white"/>
<path d="M420.464 85.128V60.3007H344.697V51.7838H458.851V60.3007H435.031V96.216H385.741C383.054 96.216 380.55 96.457 378.229 96.9391C375.969 97.3676 374.014 98.1176 372.365 99.1889C370.716 100.26 369.403 101.68 368.426 103.447C367.51 105.215 367.052 107.411 367.052 110.036C367.052 111.75 367.54 113.517 368.517 115.339C369.495 117.16 370.808 118.954 372.457 120.722C374.167 122.49 376.152 124.177 378.412 125.784C380.733 127.337 383.237 128.73 385.925 129.962C388.612 131.14 391.422 132.078 394.353 132.774C397.285 133.47 400.217 133.819 403.148 133.819C408.279 133.819 413.226 132.854 417.99 130.926C422.815 128.998 427.854 125.891 433.107 121.606L439.978 129.56C434.909 134.917 429.076 138.827 422.479 141.291C415.944 143.701 408.859 144.907 401.224 144.907C396.644 144.907 392.246 144.398 388.032 143.38C383.878 142.362 380 140.996 376.396 139.282C372.793 137.568 369.525 135.559 366.593 133.256C363.662 130.953 361.127 128.516 358.989 125.945C356.913 123.373 355.294 120.749 354.134 118.071C353.034 115.392 352.485 112.794 352.485 110.277C352.485 107.116 353.004 104.036 354.042 101.037C355.08 97.9836 356.852 95.2786 359.356 92.9218C361.86 90.5649 365.158 88.6901 369.25 87.2974C373.404 85.8512 378.595 85.128 384.825 85.128H420.464Z" fill="white"/>
<path d="M307.959 71.0672C307.959 70.2638 307.898 69.3799 307.776 68.4158C307.715 67.398 307.593 66.4071 307.409 65.4429C307.287 64.4252 307.135 63.461 306.951 62.5504C306.768 61.6398 306.585 60.8899 306.402 60.3007H231.826V51.7838H347.354V60.3007H322.068C322.373 61.7469 322.679 63.5413 322.984 65.6839C323.351 67.773 323.534 69.7549 323.534 71.6297C323.534 77.4682 322.923 83.0122 321.702 88.2616C320.48 93.511 318.678 98.3854 316.296 102.885C320.144 108.402 323.137 114.616 325.275 121.525C327.412 128.382 328.725 135.613 329.214 143.219H314.647C314.036 138.291 313.151 133.417 311.99 128.596C310.891 123.722 309.364 119.115 307.409 114.776C303.439 118.579 298.767 121.525 293.392 123.614C288.078 125.704 282.093 126.748 275.435 126.748C271.16 126.748 266.884 126.293 262.609 125.382C258.334 124.418 254.486 122.972 251.065 121.043C247.706 119.115 244.958 116.678 242.82 113.732C240.682 110.732 239.613 107.197 239.613 103.126C239.613 100.341 240.133 97.8497 241.171 95.6536C242.209 93.4574 243.614 91.5558 245.385 89.9489C247.156 88.2884 249.203 86.8689 251.523 85.6905C253.844 84.512 256.257 83.5747 258.761 82.8783C261.326 82.1284 263.922 81.5928 266.549 81.2714C269.236 80.95 271.771 80.7893 274.153 80.7893C280.505 80.7893 286.277 81.7267 291.468 83.6014C296.721 85.4227 301.454 87.9938 305.669 91.3148C306.524 88.1009 307.104 84.8067 307.409 81.4321C307.776 78.0039 307.959 74.549 307.959 71.0672ZM273.878 90.9934C270.763 90.9934 267.892 91.2612 265.266 91.7969C262.64 92.3325 260.349 93.1092 258.395 94.127C256.501 95.1447 255.005 96.4035 253.905 97.9033C252.806 99.3496 252.256 101.01 252.256 102.885C252.256 105.188 252.959 107.143 254.364 108.75C255.829 110.357 257.631 111.696 259.769 112.768C261.968 113.785 264.35 114.535 266.915 115.017C269.48 115.499 271.893 115.74 274.153 115.74C280.627 115.74 285.971 114.616 290.186 112.366C294.4 110.116 297.79 107.116 300.355 103.367C297.24 99.6174 293.514 96.6177 289.178 94.368C284.841 92.1183 279.741 90.9934 273.878 90.9934Z" fill="white"/>
<path d="M203.425 48.1682C200.554 44.6329 197.592 41.8743 194.538 39.8924C191.484 37.9105 188.491 36.4375 185.56 35.4733C182.628 34.5091 179.849 33.9199 177.223 33.7057C174.596 33.4914 172.306 33.3843 170.351 33.3843H143.416V23.9836H168.061C170.81 23.9836 173.65 24.1711 176.581 24.546C179.452 24.921 182.292 25.6173 185.102 26.6351C187.85 27.5992 190.507 28.9384 193.072 30.6524C195.638 32.3665 197.989 34.5895 200.127 37.3213C198.478 33.2503 196.432 29.5544 193.988 26.2333C191.484 22.8587 188.583 20.0198 185.285 17.7165C181.987 15.3596 178.261 13.5384 174.108 12.2529C169.893 10.9673 165.251 10.3245 160.182 10.3245H137.919V0.120392H157.25C164.946 0.120392 171.726 1.21847 177.589 3.41464C183.391 5.6108 188.43 8.69079 192.706 12.6546C196.92 16.5648 200.432 21.3054 203.242 26.8761C205.99 32.3933 208.158 38.4729 209.746 45.115L203.425 48.1682Z" fill="white"/>
<path d="M210.663 96.3767C210.663 99.7513 210.693 103.474 210.754 107.545C210.815 111.562 210.907 115.66 211.029 119.838C211.212 123.963 211.365 128.034 211.487 132.051C211.67 136.068 211.854 139.791 212.037 143.219H194.63C194.813 140.059 194.966 136.658 195.088 133.015C195.271 129.319 195.424 125.57 195.546 121.767C195.668 117.91 195.76 114.107 195.821 110.357C195.943 106.554 196.035 102.965 196.096 99.5906H147.356V143.219H134.804V99.5906C133.277 99.537 131.812 99.2424 130.407 98.7068C129.063 98.1711 127.872 97.448 126.834 96.5374C125.856 95.6268 125.062 94.5823 124.452 93.4038C123.902 92.1718 123.627 90.8327 123.627 89.3865C123.627 86.2261 124.727 83.6818 126.925 81.7534C129.124 79.7715 132.056 78.7806 135.72 78.7806C137.431 78.7806 138.988 79.0484 140.393 79.5841C141.859 80.0662 143.111 80.7625 144.149 81.6731C145.188 82.5301 145.982 83.5479 146.531 84.7263C147.081 85.9047 147.356 87.1635 147.356 88.5026H196.096V60.3007H115.84V51.7838H234.483V60.3007H210.663V96.3767Z" fill="white"/>
<path d="M64.8095 12.4939C68.8406 12.4939 72.3831 13.1367 75.437 14.4222C78.4909 15.7078 81.1172 17.5558 83.316 19.9662C85.5148 22.3231 87.3166 25.1888 88.7214 28.5634C90.1261 31.8844 91.1645 35.634 91.8363 39.8121L86.5226 42.0618C85.6064 39.4371 84.6292 37.0267 83.5908 34.8305C82.4914 32.6343 81.1477 30.7864 79.5597 29.2865C77.9717 27.7331 76.0783 26.5279 73.8795 25.6709C71.6196 24.8139 68.9017 24.3853 65.7257 24.3853C63.8933 24.3853 62.0916 24.5728 60.3203 24.9478C58.488 25.3227 56.6557 25.7245 54.8233 26.153C52.9299 26.5815 51.006 26.9832 49.0515 27.3582C47.0359 27.7331 44.9593 27.9206 42.8216 27.9206C39.0348 27.9206 35.5534 27.3582 32.3773 26.2333C29.1402 25.1085 26.2696 23.4747 23.7654 21.3321C21.2612 19.136 19.1541 16.4577 17.4439 13.2974C15.7337 10.0835 14.5427 6.41428 13.8709 2.28977L19.2762 0.0400391C20.1924 2.71829 21.2918 5.04837 22.5744 7.03027C23.857 9.01218 25.4145 10.6727 27.2468 12.0118C29.0792 13.2974 31.2169 14.2883 33.66 14.9847C36.1031 15.6275 38.9432 15.9488 42.1803 15.9488C43.9515 15.9488 45.7533 15.7882 47.5856 15.4668C49.3569 15.0918 51.1892 14.6901 53.0826 14.2615C54.9149 13.7795 56.8083 13.3777 58.7628 13.0563C60.6562 12.6814 62.6718 12.4939 64.8095 12.4939Z" fill="white"/>
<path d="M95.2261 143.219H77.7274C77.8496 140.755 77.9717 138.131 78.0939 135.345C78.216 132.56 78.3382 129.667 78.4603 126.668C76.0172 127.953 73.4214 129.185 70.6729 130.364C67.9855 131.542 65.1149 132.587 62.061 133.497C59.0682 134.354 55.8922 135.051 52.5329 135.586C49.2347 136.122 45.7533 136.39 42.0887 136.39C36.2252 136.39 31.1253 135.774 26.7888 134.542C22.5133 133.256 18.9708 131.462 16.1613 129.158C13.3517 126.855 11.2751 124.07 9.93136 120.802C8.58765 117.481 7.9158 113.785 7.9158 109.714C7.9158 106.34 8.4655 103.367 9.56489 100.796C10.6643 98.2247 11.8858 95.841 13.2295 93.6449C14.5732 91.3952 15.7948 89.2258 16.8942 87.1367C17.9936 84.9941 18.5433 82.7176 18.5433 80.3072C18.5433 78.9681 18.3906 77.5218 18.0852 75.9684C17.7798 74.3615 17.2607 72.701 16.5277 70.9869C15.7948 69.2728 14.787 67.5052 13.5044 65.6839C12.2828 63.8627 10.7254 62.0683 8.83196 60.3007H0.128418V51.7838H18.5433C21.2918 55.1049 23.4906 58.1581 25.1397 60.9434C26.8498 63.7288 28.1325 66.2999 28.9875 68.6568C29.9037 70.9601 30.4839 73.0759 30.7283 75.0043C31.0336 76.9326 31.1863 78.6467 31.1863 80.1465C31.1863 83.414 30.7588 86.2797 29.9037 88.7437C29.0486 91.2077 28.1019 93.5378 27.0636 95.7339C26.0864 97.8765 25.1702 99.9923 24.3151 102.081C23.5211 104.17 23.1241 106.474 23.1241 108.991C23.1241 110.33 23.399 111.911 23.9486 113.732C24.5594 115.499 25.5672 117.187 26.972 118.794C28.4378 120.401 30.3923 121.767 32.8354 122.891C35.3396 123.963 38.4851 124.498 42.2719 124.498C46.6695 124.498 52.0443 123.561 58.3964 121.686C64.7484 119.758 71.6196 116.865 79.01 113.009C79.1322 110.009 79.1933 107.116 79.1933 104.331C79.1933 101.492 79.1933 98.8407 79.1933 96.3767V51.7838H117.58V60.3007H93.7602V96.3767C93.7602 99.7513 93.7908 103.474 93.8519 107.545C93.9129 111.562 94.0046 115.66 94.1267 119.838C94.3099 123.963 94.4932 128.034 94.6764 132.051C94.8596 136.068 95.0429 139.791 95.2261 143.219ZM113 185C108.907 182 104.449 179.322 99.6237 176.965C94.8596 174.662 90.3704 172.76 86.1561 171.261C83.0411 174.474 79.4986 176.912 75.5286 178.572C71.5586 180.286 67.5885 181.143 63.6185 181.143C61.4197 181.143 59.4041 180.875 57.5718 180.34C55.8006 179.804 54.2431 179.108 52.8994 178.251C51.5557 177.447 50.5174 176.564 49.7844 175.599C49.0515 174.635 48.685 173.698 48.685 172.787C48.685 171.341 49.0515 169.841 49.7844 168.288C50.5784 166.734 51.7389 165.315 53.2659 164.029C54.7928 162.797 56.6862 161.78 58.9461 160.976C61.2059 160.173 63.8628 159.771 66.9167 159.771C68.3825 159.771 69.8484 159.798 71.3143 159.851C72.8412 159.958 74.3681 160.119 75.8951 160.333C76.9945 158.512 77.9717 156.611 78.8268 154.629C79.743 152.647 80.201 150.236 80.201 147.397H94.768C94.768 150.665 94.4626 153.531 93.8519 155.995C93.2411 158.459 92.386 160.815 91.2866 163.065C95.7453 164.404 100.326 166.333 105.029 168.85C109.793 171.421 114.74 174.448 119.871 177.929L113 185Z" fill="white"/>
</svg>
