<svg width="984" height="145" viewBox="0 0 984 145" fill="none" xmlns="http://www.w3.org/2000/svg">
<path d="M983.333 55.033H959.531V85.8196H942.788C917.977 85.8196 904.26 92.3597 904.26 108.311C904.26 123.306 918.38 131.122 935.93 131.122C948.436 131.122 957.917 127.932 969.617 121.392L976.475 131.76C965.784 138.779 953.076 142.926 935.728 142.926C907.891 142.926 888.123 129.686 888.123 108.152C888.123 85.8196 906.883 74.6535 940.569 74.6535H943.192V55.033H878.844V43.7074H983.333V55.033Z" fill="white"/>
<path d="M893.787 55.033H861.31V89.648C867.362 86.4577 874.018 84.2244 884.508 84.2244H898.426V95.5501H887.13C874.825 95.5501 869.379 97.3047 861.31 102.569V142.926H844.971V115.809C837.709 120.913 828.027 124.103 815.924 124.103C795.349 124.103 778.203 114.851 778.203 96.5072C778.203 79.1199 793.533 68.9109 819.757 68.9109C826.615 68.9109 832.868 69.549 837.911 70.5061L836.499 82.1507C831.86 81.1936 826.211 80.5556 820.16 80.5556C803.619 80.5556 794.542 86.2981 794.542 96.9857C794.542 107.514 803.821 112.618 815.924 112.618C828.229 112.618 838.92 107.195 844.971 100.336V55.033H768.924V43.7074H893.787V55.033Z" fill="white"/>
<path d="M734.834 44.824C723.739 16.4301 719.705 11.6447 705.988 11.6447C700.34 11.6447 694.087 12.7613 689.245 14.1969L684.808 2.87129C690.456 1.11661 698.121 0 704.979 0C728.58 0 735.842 9.0924 749.761 44.824H734.834Z" fill="white"/>
<path d="M750.933 55.033V142.926H734.594V83.9054H706.959C701.512 83.9054 697.881 83.7459 695.461 83.4268C705.143 89.648 711.598 98.7404 711.598 108.152C711.598 122.987 697.882 130.165 681.744 130.165C660.362 130.165 642.409 116.925 625.465 78.9604L639.787 74.9725C652.092 103.526 665.203 118.52 680.937 118.52C689.611 118.52 695.663 115.171 695.663 106.716C695.663 97.3047 686.384 88.8504 674.281 82.7888L680.13 72.5798H734.594V55.033H619.212V43.7074H771.71V55.033H750.933Z" fill="white"/>
<path d="M601.302 55.033V142.926H584.962V55.033H567.01V43.7074H584.761C573.868 16.2706 569.834 11.6447 556.319 11.6447C550.671 11.6447 544.417 12.7613 539.576 14.1969L535.138 2.87129C540.786 1.11661 548.452 0 555.31 0C578.911 0 586.173 9.09241 599.688 43.7074H622.078V55.033H601.302Z" fill="white"/>
<path d="M461.242 134.472L498.761 116.925C479.195 115.011 468.1 104.483 468.1 85.5006V55.033H452.165V43.7074H569.766V55.033H548.787V142.926H532.448V111.023L470.723 145L461.242 134.472ZM532.448 55.033H484.44V85.9791C484.44 99.6975 491.903 105.919 505.418 105.919C515.706 105.919 525.59 101.452 532.448 95.7096V55.033Z" fill="white"/>
<path d="M377.548 55.033V142.926H361.209V55.033H334.381V91.7217C334.381 100.655 332.162 106.557 327.321 111.342C321.673 116.606 312.797 119.637 300.291 119.637C287.582 119.637 278.505 116.447 272.655 110.226C268.016 105.281 265.595 98.2618 265.595 86.7767V55.033H249.66V43.7074H398.325V55.033H377.548ZM299.887 108.311C306.947 108.311 311.587 106.716 314.411 103.207C317.235 99.6975 318.042 95.8691 318.042 86.6172V55.033H281.934V86.6172C281.934 94.912 282.741 99.3784 285.565 102.888C288.389 106.397 292.625 108.311 299.887 108.311Z" fill="white"/>
<path d="M252.551 55.033H231.775V142.926H215.637V117.723C207.972 122.189 197.886 124.582 186.187 124.582C163.998 124.582 146.852 114.532 146.852 96.8262C146.852 77.8438 164.199 68.9109 188.607 68.9109C196.071 68.9109 202.727 69.549 208.375 70.6656L207.367 82.1507C201.719 81.1936 196.071 80.5556 189.212 80.5556C174.084 80.5556 163.191 86.2981 163.191 97.1452C163.191 106.716 171.058 113.097 186.187 113.097C198.088 113.097 208.577 108.79 215.637 102.09V55.033H137.573V43.7074H252.551V55.033Z" fill="white"/>
<path d="M38.9314 137.662L30.0559 126.656L84.1161 102.409C71.2062 100.336 58.498 96.6666 48.4121 92.6787C35.3005 98.4213 20.9786 103.366 6.25323 108.471L0 97.4642C11.9013 93.6358 23.3992 90.1265 34.4936 85.8196C21.7855 79.2794 16.1374 71.4631 16.1374 62.8493C16.1374 51.2046 27.837 42.1122 48.2104 42.1122C67.777 42.1122 79.88 49.4499 79.88 63.1683C79.88 72.4202 73.8285 79.758 61.5237 86.2981C73.0216 89.6479 89.3607 92.6787 103.077 93.3168V55.033H90.3693V43.7074H140.395V55.033H119.417V142.926H103.077V106.397L38.9314 137.662ZM32.4765 63.8064C32.4765 70.506 37.9228 75.7701 47.4035 80.396C57.4894 75.6105 63.5409 70.3465 63.5409 63.3278C63.5409 56.7877 58.498 52.6402 48.4121 52.6402C39.1331 52.6402 32.4765 56.6281 32.4765 63.8064Z" fill="white"/>
</svg>
