<svg width="522" height="135" viewBox="0 0 522 135" fill="none" xmlns="http://www.w3.org/2000/svg">
<path d="M501.646 104.514H485.713C485.879 102.286 486.018 99.9018 486.13 97.3613C486.296 94.7817 486.436 92.1435 486.547 89.4466C486.714 86.7498 486.825 84.0724 486.88 81.4147C486.992 78.7178 487.047 76.1578 487.047 73.7345H449.509C448.952 75.8842 448.063 77.9557 446.839 79.949C445.671 81.9032 444.253 83.6425 442.585 85.1668C440.916 86.652 439.081 87.8441 437.079 88.7431C435.133 89.642 433.131 90.0915 431.073 90.0915C428.348 90.0915 426.207 89.4662 424.65 88.2154C423.148 86.9647 422.397 85.2059 422.397 82.939C422.397 81.6492 422.787 80.2812 423.565 78.8351C424.344 77.3498 425.428 75.9037 426.818 74.4967C428.209 73.0896 429.877 71.7803 431.824 70.5686C433.826 69.3179 436.022 68.2822 438.414 67.4614C438.247 65.429 437.941 63.4747 437.496 61.5987C437.051 59.7226 436.3 57.8465 435.244 55.9704C434.243 54.0553 432.88 52.1206 431.156 50.1663C429.432 48.2121 427.236 46.1601 424.566 44.0105H415.307V37.796H522V44.0105H500.311V70.3341C500.311 72.7965 500.339 75.5129 500.394 78.4833C500.45 81.4147 500.533 84.4047 500.645 87.4533C500.811 90.4628 500.978 93.4333 501.145 96.3646C501.312 99.296 501.479 102.012 501.646 104.514ZM449.842 65.7026H487.047V44.0105H438.581C442.14 47.2936 444.781 50.7917 446.505 54.5048C448.285 58.1787 449.397 61.9113 449.842 65.7026Z" fill="white"/>
<path d="M382.857 62.1263V44.0105H313.869V37.796H417.809V44.0105H396.12V70.2169H351.241C348.794 70.2169 346.513 70.3927 344.4 70.7445C342.342 71.0572 340.563 71.6044 339.061 72.3861C337.56 73.1678 336.364 74.2035 335.474 75.4933C334.64 76.7831 334.223 78.3856 334.223 80.3008C334.223 81.5515 334.668 82.8413 335.558 84.1702C336.448 85.499 337.643 86.8084 339.145 88.0982C340.702 89.388 342.509 90.6192 344.567 91.7917C346.68 92.9252 348.96 93.9414 351.407 94.8403C353.854 95.7002 356.413 96.3842 359.082 96.8923C361.751 97.4004 364.421 97.6544 367.09 97.6544C371.762 97.6544 376.266 96.9509 380.604 95.5438C384.998 94.1368 389.586 91.8699 394.368 88.7431L400.625 94.5472C396.009 98.4557 390.698 101.309 384.692 103.107C378.741 104.866 372.29 105.745 365.338 105.745C361.167 105.745 357.163 105.374 353.326 104.631C349.544 103.888 346.013 102.892 342.732 101.641C339.451 100.39 336.475 98.9247 333.806 97.244C331.136 95.5634 328.829 93.785 326.882 91.909C324.991 90.0329 323.518 88.1177 322.461 86.1635C321.46 84.2092 320.959 82.3136 320.959 80.4766C320.959 78.1706 321.432 75.9233 322.377 73.7345C323.323 71.5067 324.936 69.5329 327.216 67.8131C329.496 66.0934 332.499 64.7254 336.225 63.7092C340.007 62.6539 344.734 62.1263 350.406 62.1263H382.857Z" fill="white"/>
<path d="M280.418 51.8665C280.418 51.2803 280.362 50.6354 280.251 49.9318C280.195 49.1892 280.084 48.4662 279.917 47.7626C279.806 47.02 279.667 46.3165 279.5 45.652C279.333 44.9876 279.166 44.4404 278.999 44.0105H211.096V37.796H316.288V44.0105H293.264C293.542 45.0658 293.82 46.3751 294.098 47.9385C294.432 49.4628 294.599 50.909 294.599 52.2769C294.599 56.5372 294.043 60.5825 292.93 64.4128C291.818 68.2431 290.178 71.7998 288.009 75.0829C291.512 79.1087 294.237 83.6425 296.184 88.6845C298.13 93.6873 299.326 98.9638 299.771 104.514H286.507C285.951 100.918 285.145 97.3613 284.088 93.8437C283.087 90.2869 281.697 86.9256 279.917 83.7598C276.302 86.5348 272.048 88.6845 267.154 90.2088C262.316 91.7331 256.865 92.4952 250.804 92.4952C246.911 92.4952 243.018 92.163 239.125 91.4986C235.232 90.795 231.728 89.7397 228.614 88.3327C225.555 86.9256 223.053 85.1473 221.106 82.9976C219.16 80.8089 218.187 78.2293 218.187 75.2588C218.187 73.2264 218.659 71.409 219.605 69.8065C220.55 68.204 221.829 66.8165 223.442 65.6439C225.055 64.4323 226.918 63.3966 229.031 62.5367C231.144 61.6768 233.341 60.9928 235.621 60.4847C237.957 59.9376 240.321 59.5467 242.712 59.3122C245.159 59.0777 247.467 58.9604 249.636 58.9604C255.419 58.9604 260.675 59.6444 265.402 61.0124C270.185 62.3413 274.495 64.2173 278.332 66.6406C279.111 64.2955 279.639 61.8918 279.917 59.4294C280.251 56.928 280.418 54.407 280.418 51.8665ZM249.385 66.4061C246.549 66.4061 243.935 66.6015 241.544 66.9924C239.153 67.3832 237.067 67.9499 235.288 68.6926C233.564 69.4352 232.201 70.3537 231.2 71.448C230.199 72.5033 229.699 73.715 229.699 75.0829C229.699 76.7636 230.338 78.1902 231.617 79.3627C232.952 80.5353 234.592 81.5124 236.539 82.2941C238.541 83.0367 240.71 83.5839 243.046 83.9356C245.381 84.2874 247.578 84.4633 249.636 84.4633C255.531 84.4633 260.397 83.6425 264.234 82.0009C268.071 80.3594 271.158 78.1706 273.494 75.4347C270.657 72.6988 267.265 70.51 263.317 68.8684C259.368 67.2269 254.724 66.4061 249.385 66.4061Z" fill="white"/>
<path d="M185.236 35.1578C182.622 32.5782 179.925 30.5653 177.144 29.1192C174.364 27.673 171.639 26.5982 168.969 25.8947C166.3 25.1911 163.769 24.7612 161.378 24.6049C158.987 24.4485 156.901 24.3704 155.122 24.3704H130.596V17.511H153.036C155.539 17.511 158.125 17.6478 160.794 17.9214C163.408 18.1949 165.994 18.703 168.552 19.4457C171.055 20.1492 173.474 21.1263 175.81 22.377C178.145 23.6277 180.286 25.2498 182.233 27.2431C180.731 24.2726 178.868 21.5758 176.644 19.1525C174.364 16.6902 171.722 14.6187 168.719 12.938C165.716 11.2183 162.323 9.88942 158.542 8.95138C154.705 8.01334 150.478 7.54433 145.862 7.54433H125.591V0.0986633H143.193C150.2 0.0986633 156.373 0.899903 161.712 2.50238C166.995 4.10486 171.583 6.35224 175.476 9.24452C179.313 12.0977 182.511 15.5567 185.069 19.6215C187.572 23.6473 189.546 28.0834 190.992 32.9299L185.236 35.1578Z" fill="white"/>
<path d="M191.826 70.3341C191.826 72.7965 191.854 75.5129 191.91 78.4833C191.965 81.4147 192.049 84.4047 192.16 87.4533C192.327 90.4628 192.466 93.4333 192.577 96.3646C192.744 99.296 192.911 102.012 193.077 104.514H177.228C177.395 102.208 177.534 99.7259 177.645 97.0682C177.812 94.3713 177.951 91.6354 178.062 88.8603C178.173 86.0462 178.257 83.2712 178.312 80.5353C178.423 77.7602 178.507 75.1416 178.562 72.6792H134.183V104.514H122.755V72.6792C121.365 72.6401 120.03 72.4252 118.751 72.0343C117.527 71.6435 116.443 71.1158 115.497 70.4514C114.608 69.7869 113.885 69.0248 113.329 68.1649C112.828 67.266 112.578 66.2888 112.578 65.2335C112.578 62.9275 113.579 61.071 115.581 59.664C117.583 58.2178 120.252 57.4947 123.589 57.4947C125.146 57.4947 126.564 57.6902 127.843 58.081C129.178 58.4328 130.318 58.9409 131.264 59.6053C132.209 60.2307 132.932 60.9733 133.433 61.8332C133.933 62.693 134.183 63.6115 134.183 64.5886H178.562V44.0105H105.487V37.796H213.515V44.0105H191.826V70.3341Z" fill="white"/>
<path d="M59.0225 9.12727C62.6929 9.12727 65.9185 9.59628 68.6991 10.5343C71.4798 11.4724 73.8711 12.8208 75.8732 14.5796C77.8753 16.2993 79.5158 18.3904 80.7949 20.8527C82.074 23.276 83.0195 26.0119 83.6312 29.0605L78.7929 30.7021C77.9587 28.7869 77.0689 27.0281 76.1235 25.4256C75.1224 23.8232 73.8989 22.4747 72.453 21.3804C71.0071 20.2469 69.2831 19.3675 67.281 18.7421C65.2233 18.1168 62.7486 17.8041 59.8567 17.8041C58.1883 17.8041 56.5477 17.9409 54.9349 18.2145C53.2666 18.4881 51.5982 18.7812 49.9298 19.0939C48.2058 19.4066 46.454 19.6997 44.6744 19.9733C42.8391 20.2469 40.9483 20.3837 39.0018 20.3837C35.5538 20.3837 32.3839 19.9733 29.492 19.1525C26.5446 18.3317 23.9307 17.1397 21.6506 15.5763C19.3705 13.9738 17.4518 12.0195 15.8947 9.71354C14.3375 7.36845 13.2531 4.69114 12.6413 1.6816L17.5631 0.0400391C18.3973 1.99428 19.3983 3.69447 20.5662 5.14061C21.734 6.58675 23.1522 7.79838 24.8206 8.7755C26.4889 9.71354 28.4354 10.4366 30.6599 10.9447C32.8844 11.4137 35.4704 11.6482 38.4179 11.6482C40.0307 11.6482 41.6713 11.531 43.3397 11.2965C44.9524 11.0229 46.6208 10.7297 48.3448 10.4171C50.0132 10.0653 51.7372 9.77217 53.5168 9.53766C55.2408 9.26406 57.076 9.12727 59.0225 9.12727Z" fill="white"/>
<path d="M86.7177 104.514H70.7846C70.8959 102.716 71.0071 100.801 71.1183 98.7683C71.2295 96.7359 71.3408 94.6254 71.452 92.4366C69.2275 93.3746 66.8639 94.2736 64.3613 95.1335C61.9144 95.9933 59.3006 96.7555 56.5199 97.4199C53.7949 98.0453 50.903 98.5534 47.8443 98.9442C44.8412 99.3351 41.6713 99.5305 38.3345 99.5305C32.9957 99.5305 28.352 99.081 24.4035 98.1821C20.5106 97.244 17.285 95.9347 14.7268 94.254C12.1686 92.5734 10.2778 90.541 9.05429 88.1568C7.83081 85.7336 7.21907 83.0367 7.21907 80.0662C7.21907 77.6039 7.71958 75.4347 8.72061 73.5586C9.72165 71.6826 10.8339 69.9433 12.0574 68.3408C13.2809 66.6992 14.3931 65.1163 15.3942 63.592C16.3952 62.0286 16.8957 60.3675 16.8957 58.6087C16.8957 57.6315 16.7567 56.5763 16.4786 55.4428C16.2006 54.2703 15.7278 53.0586 15.0605 51.8079C14.3931 50.5572 13.4755 49.2674 12.3076 47.9385C11.1954 46.6096 9.77726 45.3003 8.05326 44.0105H0.128418V37.796H16.8957C19.3983 40.2193 21.4004 42.4471 22.9019 44.4795C24.4591 46.5119 25.6269 48.388 26.4055 50.1077C27.2397 51.7884 27.768 53.3322 27.9905 54.7393C28.2686 56.1463 28.4076 57.397 28.4076 58.4914C28.4076 60.8756 28.0183 62.9666 27.2397 64.7645C26.4611 66.5624 25.5991 68.2626 24.6537 69.8651C23.7639 71.4285 22.9297 72.9724 22.1511 74.4967C21.4282 76.021 21.0667 77.7016 21.0667 79.5386C21.0667 80.5157 21.3169 81.6687 21.8175 82.9976C22.3736 84.2874 23.2912 85.5186 24.5703 86.6911C25.905 87.8637 27.6846 88.8603 29.9091 89.6811C32.1893 90.4628 35.0533 90.8537 38.5013 90.8537C42.5055 90.8537 47.3994 90.1697 53.1831 88.8017C58.9669 87.3947 65.2233 85.2841 71.9525 82.47C72.0637 80.2812 72.1193 78.1706 72.1193 76.1382C72.1193 74.0667 72.1193 72.132 72.1193 70.3341V37.796H107.072V44.0105H85.383V70.3341C85.383 72.7965 85.4108 75.5129 85.4664 78.4833C85.5221 81.4147 85.6055 84.4047 85.7167 87.4533C85.8835 90.4628 86.0504 93.4333 86.2172 96.3646C86.3841 99.296 86.5509 102.012 86.7177 104.514ZM102.901 135C99.175 132.811 95.1153 130.857 90.7219 129.137C86.3841 127.457 82.2965 126.069 78.4592 124.975C75.623 127.32 72.3974 129.098 68.7826 130.31C65.1677 131.561 61.5529 132.186 57.938 132.186C55.936 132.186 54.1008 131.99 52.4324 131.6C50.8196 131.209 49.4015 130.701 48.178 130.075C46.9545 129.489 46.0091 128.844 45.3417 128.141C44.6744 127.437 44.3407 126.753 44.3407 126.089C44.3407 125.033 44.6744 123.939 45.3417 122.806C46.0647 121.672 47.1213 120.636 48.5117 119.698C49.902 118.799 51.626 118.057 53.6837 117.47C55.7413 116.884 58.1605 116.591 60.9411 116.591C62.2759 116.591 63.6106 116.611 64.9453 116.65C66.3356 116.728 67.7259 116.845 69.1162 117.001C70.1173 115.673 71.0071 114.285 71.7857 112.839C72.6199 111.393 73.037 109.634 73.037 107.562H86.3006C86.3006 109.947 86.0226 112.038 85.4664 113.836C84.9103 115.633 84.1317 117.353 83.1307 118.995C87.1904 119.972 91.3614 121.379 95.6436 123.216C99.9814 125.092 104.486 127.3 109.158 129.841L102.901 135Z" fill="white"/>
</svg>
